<svg id="Layer_1" data-name="Layer 1" xmlns="http://www.w3.org/2000/svg" viewBox="0 0 184.83 26"><defs><style>.cls-1{fill:#002f87;}</style></defs><polygon class="cls-1" points="86.48 14.57 100.08 14.57 100.08 11.99 86.48 11.99 86.48 3.02 101.7 3.02 101.7 0.4 83.65 0.4 83.65 25.52 86.48 25.52 86.48 14.57"/><rect class="cls-1" x="104.08" y="0.4" width="2.76" height="25.18"/><path class="cls-1" d="M205.36,84.89a9.63,9.63,0,0,0,9.72-9.69v-.08a9.68,9.68,0,0,0-19.35.08v.07A9.51,9.51,0,0,0,205.36,84.89Zm-6.79-9.77c0-3.91,2.76-7.18,6.79-7.18a7,7,0,0,1,6.89,7.26v.07a6.85,6.85,0,0,1-6.82,7.14,7,7,0,0,1-6.86-7.21Z" transform="translate(-86.7 -59.06)"/><path class="cls-1" d="M220.11,77.18c0-5.63,3.32-8.55,7.4-8.55h.22v-3c-3.54-.14-6.25,2.09-7.62,5.2V66h-2.78V84.62h2.78Z" transform="translate(-86.7 -59.06)"/><rect class="cls-1" x="142.74" y="6.66" width="2.76" height="18.9"/><rect class="cls-1" x="142.48" y="0.45" width="3.15" height="3.04"/><path class="cls-1" d="M243.27,85a8.34,8.34,0,0,0,7.1-4.12v3.73h2.75V59.43h-2.75V69.62a8.38,8.38,0,0,0-7.1-4c-4.44,0-8.84,3.59-8.84,9.64v.07C234.43,81.47,238.83,85,243.27,85Zm-6-9.71c0-4.47,2.93-7.12,6.52-7.12a6.88,6.88,0,0,1,6.69,7.12v.08a6.91,6.91,0,0,1-6.69,7.16c-3.51,0-6.52-2.8-6.52-7.16Z" transform="translate(-86.7 -59.06)"/><path class="cls-1" d="M262.07,85a8.19,8.19,0,0,0,6.72-3.18v2.78h2.74V73.17a7.39,7.39,0,0,0-1.95-5.49,8.29,8.29,0,0,0-6-2.06,15.45,15.45,0,0,0-6.79,1.59l.83,2.28a13,13,0,0,1,5.67-1.34c3.5,0,5.53,1.74,5.53,5.06v.58a19.57,19.57,0,0,0-5.71-.8c-4.73,0-8,2.09-8,6.1v.08C255.1,83,258.57,85,262.07,85Zm-4.15-6c0-2.24,2-3.76,5.45-3.76a19,19,0,0,1,5.45.8v1.73c0,3-2.78,5-6.21,5-2.53,0-4.69-1.37-4.69-3.72Z" transform="translate(-86.7 -59.06)"/><path class="cls-1" d="M126.43,78.44a14.38,14.38,0,0,1-8.78-2.94l-4.47,5.34c3.18,2.79,7.77,4.22,12.85,4.22,6.74,0,11.07-3.22,11.07-8.48V76.5c0-5-4.3-6.91-10.71-8.09-2.65-.5-3.33-.93-3.33-1.61v-.07c0-.61.57-1,1.83-1a13.15,13.15,0,0,1,7.52,2.47l4.08-5.66c-2.9-2.29-6.48-3.44-11.32-3.44-6.91,0-10.63,3.69-10.63,8.46v.07c0,5.3,4.94,6.91,10.56,8,2.69.54,3.48.94,3.48,1.65v.07C128.58,78,127.93,78.44,126.43,78.44Z" transform="translate(-86.7 -59.06)"/><path class="cls-1" d="M150.78,85c7.49,0,12.46-3.37,12.46-11.93V59.46h-8.52V73.35c0,3.05-1.61,4.26-3.87,4.26S147,76.29,147,73.17V59.46h-8.53V73.28C138.46,81.59,143.3,85,150.78,85Z" transform="translate(-86.7 -59.06)"/><path class="cls-1" d="M94.6,84.6c1.25-3.2.47-7.08-.18-9.39a.26.26,0,0,1,.36-.3c5.38,2.11,8.6,7.1,10,9.69h7V59.53h-8.31V70.6L94.54,59.53H86.7V84.6h7.9Z" transform="translate(-86.7 -59.06)"/></svg>